<svg width="79" height="111" viewBox="0 0 79 111" fill="none" xmlns="http://www.w3.org/2000/svg">
<g filter="url(#filter0_d_44_8900)">
<g filter="url(#filter1_d_44_8900)">
<path d="M32.8447 28.6992C23.932 28.6992 16.7207 35.8847 16.7207 44.7393C16.7207 53.5939 32.8447 78.9695 32.8447 78.9695C32.8447 78.9695 48.9688 53.5939 48.9688 44.7393C48.9688 35.8847 41.7575 28.6992 32.8447 28.6992Z" fill="white"/>
</g>
<path d="M29.0089 53.6968C30.3136 53.3754 31.1384 52.4732 31.974 51.5146C31.8608 51.4807 31.7745 51.4525 31.6883 51.43C30.54 51.1255 29.4833 50.6067 28.5129 49.9019C27.9145 49.4677 27.4239 48.9207 27.052 48.2554C27.0034 48.1708 26.9657 48.0806 26.928 47.9903C26.9172 47.9678 26.9172 47.9396 26.9064 47.8606C27.273 47.9791 27.618 48.0918 27.9577 48.2046C27.9684 48.1933 27.9738 48.1877 27.9846 48.1764C27.9469 48.1426 27.9145 48.1087 27.8768 48.0806C27.4347 47.7817 27.0034 47.4716 26.556 47.1896C26.0438 46.8626 25.5047 46.5806 25.0087 46.2423C24.3456 45.7856 23.8766 45.1427 23.537 44.3984C23.5208 44.3646 23.5154 44.3308 23.51 44.2969C23.5046 44.28 23.51 44.2575 23.51 44.2067C24.0599 44.4548 24.572 44.8044 25.2082 44.7424C23.9575 43.9924 23.1811 42.9436 23.2351 41.3648C23.7688 41.9794 24.2917 42.5884 24.8146 43.1974C24.8254 43.1861 24.8416 43.1692 24.8524 43.1579C24.6367 42.7181 24.3834 42.2895 24.2216 41.8271C24.0599 41.3648 23.9521 40.8629 23.8982 40.3723C23.8443 39.8818 23.8874 39.3799 23.8874 38.8837C23.9143 38.8781 23.9413 38.8781 23.9629 38.8724C24.2162 39.4701 24.4696 40.0678 24.723 40.6712C24.75 40.6712 24.7769 40.6655 24.8039 40.6655C24.7931 39.5773 24.9063 38.5115 25.3861 37.536C25.4077 37.536 25.4292 37.536 25.4508 37.5417C25.4508 37.7841 25.4616 38.021 25.4508 38.2634C25.3915 39.4532 25.8282 40.4682 26.4805 41.393C26.9172 42.0076 27.4563 42.5207 28.0385 42.9831C28.8041 43.5921 29.6612 44.0375 30.5184 44.4774C31.3163 44.8834 32.0171 45.436 32.6749 46.0562C33.0738 46.434 33.4889 46.7893 33.8986 47.1558C34.0118 47.2573 34.1251 47.3701 34.2544 47.4941C34.4647 46.9866 34.6588 46.513 34.8529 46.0337C35.3219 44.8946 36.0281 43.936 36.9015 43.1071C37.5969 42.4474 38.3032 41.8102 38.9986 41.1561C39.942 40.2652 40.5297 39.16 40.7184 37.8405C40.7884 37.3725 40.7561 36.8819 40.7723 36.4083C40.7723 36.3293 40.7723 36.2447 40.7992 36.1602C41.1389 36.9721 41.2359 37.8292 41.3168 38.7202C41.651 38.0097 41.9799 37.2992 42.3141 36.5831C42.3411 36.5887 42.368 36.5943 42.3896 36.6C42.3519 37.3274 42.3465 38.0548 42.2656 38.7766C42.1847 39.4927 42.0284 40.1975 41.9044 40.8798C42.0715 40.6092 42.2656 40.299 42.492 39.9438C42.5082 40.6374 42.4866 41.2633 42.2063 41.8553C41.9314 42.4418 41.4893 42.8816 41.0095 43.3158C41.2736 43.3722 41.4839 43.2763 41.6888 43.1692C41.8882 43.0677 42.0715 42.9436 42.3033 42.8026C42.2818 42.9098 42.271 42.9831 42.2494 43.0508C41.9583 43.874 41.5055 44.5845 40.8262 45.1089C40.4111 45.436 39.969 45.7235 39.5593 46.0506C39.3005 46.2592 39.1172 46.3889 39.1064 46.6765C39.2789 46.6145 39.4461 46.5581 39.6455 46.4904C39.3113 47.6858 38.4271 48.4189 37.6562 49.276C37.7317 49.3098 37.791 49.3324 37.8503 49.3606C38.2331 49.5241 38.5565 49.7722 38.7776 50.1444C38.9447 50.4207 38.9824 50.7139 38.9123 51.0353C38.8908 51.1311 38.9447 51.2608 39.004 51.3454C39.1873 51.6386 39.2142 51.9375 39.0525 52.242C38.8962 52.5408 38.6374 52.6874 38.2978 52.71C38.5673 52.2025 38.5565 52.0897 38.1899 51.8191C38.1522 52.0277 38.1145 52.2251 38.0767 52.4337C37.8341 52.2251 37.6239 51.977 37.3597 51.8303C37.0902 51.6837 36.7721 51.6443 36.4486 51.5484C36.4648 51.6217 36.4648 51.6668 36.481 51.7063C36.7182 52.3322 36.9392 52.9694 37.2088 53.584C37.3058 53.8096 37.4999 54.0013 37.6778 54.1704C37.8449 54.3283 37.9635 54.2719 38.0282 54.0408C38.0713 53.8772 38.0875 53.7081 38.1145 53.5445C38.1414 53.3979 38.2169 53.3359 38.3139 53.381C38.3355 53.5163 38.3625 53.6235 38.3678 53.7306C38.3732 53.8434 38.3732 53.9618 38.3517 54.0689C38.3301 54.1648 38.2708 54.255 38.2277 54.3452C38.2385 54.3622 38.2546 54.3734 38.2654 54.3904C38.411 54.2889 38.5619 54.1874 38.7021 54.0802C38.7722 54.0238 38.8261 53.9505 38.8908 53.8885C39.1442 53.646 39.2682 53.663 39.4461 53.9844C39.349 53.9731 39.2628 53.9562 39.1711 53.9449C39.1549 54.3622 38.7344 54.3565 38.5619 54.6385C38.7668 54.6272 38.9501 54.6103 39.1334 54.6103C39.4137 54.6103 39.5269 54.7456 39.473 55.0445C39.3922 54.8415 39.2574 54.8697 39.128 54.926C38.853 55.0445 38.5727 55.005 38.2924 54.9655C37.9851 54.9204 37.7101 54.9655 37.446 55.1572C37.2735 55.2869 37.0955 55.411 36.8476 55.3546C36.7936 55.3433 36.6966 55.5294 36.6265 55.6196C36.5133 55.4617 36.5187 55.3095 36.7074 55.1854C36.826 55.1065 36.9662 55.067 37.0955 55.0106C37.1764 54.9768 37.2627 54.9486 37.3328 54.8922C37.4891 54.7682 37.4891 54.6892 37.3381 54.5652C36.9662 54.2494 36.5942 53.9393 36.2222 53.6235C36.1898 53.5953 36.1521 53.5727 36.1198 53.5671C35.6292 53.522 35.3596 53.1837 35.1548 52.772C35.1116 52.6818 35.0793 52.5578 34.9607 52.6367C34.896 52.6818 34.8259 52.8171 34.8475 52.8848C34.9607 53.3303 35.2087 53.6799 35.5914 53.9054C35.7586 53.8772 35.7909 53.4487 36.0281 53.7081C36.0066 53.8039 35.9904 53.8603 35.9796 53.9167C36.0443 53.928 36.1144 53.9562 36.1791 53.9505C36.2869 53.9505 36.3947 53.928 36.5025 53.9167C36.5079 53.9393 36.5133 53.9674 36.5187 53.99C36.4432 54.0295 36.3678 54.0689 36.2653 54.1253C36.7829 54.1535 36.7829 54.1535 36.8044 54.4411C36.6373 54.2719 36.4756 54.4073 36.3138 54.4298C35.9472 54.4749 35.6939 54.6554 35.5591 55.0332C35.516 55.1516 35.3974 55.2362 35.2895 55.3659C35.2949 55.3828 35.3111 55.4392 35.3219 55.5012C35.0901 55.4166 35.0362 55.2982 35.1494 55.0839C35.2356 54.9204 35.3488 54.7682 35.4513 54.6103C35.5429 54.4693 35.5429 54.3509 35.3704 54.2719C35.0901 54.1423 34.8529 53.9336 34.524 53.8998C34.4 53.8885 34.2922 53.7137 34.1682 53.6009C34.1089 53.7024 34.028 53.8208 33.9633 53.9562C33.7746 54.3565 33.4566 54.599 33.0576 54.7118C31.8015 55.0726 30.6155 54.8697 29.5103 54.1535C29.327 54.0408 29.1922 53.8659 29.0089 53.6968Z" fill="#20113D"/>
<g filter="url(#filter2_d_44_8900)">
<path d="M33.0004 26.1055C22.4594 26.1055 13.9307 34.4036 13.9307 44.6292C13.9307 54.8548 33.0004 84.1595 33.0004 84.1595C33.0004 84.1595 52.0702 54.8548 52.0702 44.6292C52.0702 34.4036 43.5415 26.1055 33.0004 26.1055Z" stroke="white" stroke-miterlimit="10" stroke-linejoin="round"/>
</g>
</g>
<defs>
<filter id="filter0_d_44_8900" x="3.25052" y="16.6833" width="59.499" height="79.499" filterUnits="userSpaceOnUse" color-interpolation-filters="sRGB">
<feFlood flood-opacity="0" result="BackgroundImageFix"/>
<feColorMatrix in="SourceAlpha" type="matrix" values="0 0 0 0 0 0 0 0 0 0 0 0 0 0 0 0 0 0 127 0" result="hardAlpha"/>
<feOffset dy="1.29993"/>
<feGaussianBlur stdDeviation="4.87474"/>
<feColorMatrix type="matrix" values="0 0 0 0 0.960784 0 0 0 0 0.501961 0 0 0 0 0.129412 0 0 0 0.7 0"/>
<feBlend mode="normal" in2="BackgroundImageFix" result="effect1_dropShadow_44_8900"/>
<feBlend mode="normal" in="SourceGraphic" in2="effect1_dropShadow_44_8900" result="shape"/>
</filter>
<filter id="filter1_d_44_8900" x="-13.2793" y="-0.000853062" width="92.2481" height="110.27" filterUnits="userSpaceOnUse" color-interpolation-filters="sRGB">
<feFlood flood-opacity="0" result="BackgroundImageFix"/>
<feColorMatrix in="SourceAlpha" type="matrix" values="0 0 0 0 0 0 0 0 0 0 0 0 0 0 0 0 0 0 127 0" result="hardAlpha"/>
<feOffset dy="1.29993"/>
<feGaussianBlur stdDeviation="15"/>
<feColorMatrix type="matrix" values="0 0 0 0 1 0 0 0 0 1 0 0 0 0 1 0 0 0 0.5 0"/>
<feBlend mode="normal" in2="BackgroundImageFix" result="effect1_dropShadow_44_8900"/>
<feBlend mode="normal" in="SourceGraphic" in2="effect1_dropShadow_44_8900" result="shape"/>
</filter>
<filter id="filter2_d_44_8900" x="3.68119" y="17.1559" width="58.6386" height="78.5536" filterUnits="userSpaceOnUse" color-interpolation-filters="sRGB">
<feFlood flood-opacity="0" result="BackgroundImageFix"/>
<feColorMatrix in="SourceAlpha" type="matrix" values="0 0 0 0 0 0 0 0 0 0 0 0 0 0 0 0 0 0 127 0" result="hardAlpha"/>
<feOffset dy="1.29993"/>
<feGaussianBlur stdDeviation="4.87474"/>
<feColorMatrix type="matrix" values="0 0 0 0 0 0 0 0 0 0 0 0 0 0 0 0 0 0 0.5 0"/>
<feBlend mode="normal" in2="BackgroundImageFix" result="effect1_dropShadow_44_8900"/>
<feBlend mode="normal" in="SourceGraphic" in2="effect1_dropShadow_44_8900" result="shape"/>
</filter>
</defs>
</svg>
